<svg width="25" height="22" viewBox="0 0 25 22" fill="none" xmlns="http://www.w3.org/2000/svg">
<path d="M21.4534 0H14.9029C13.9756 0 13.1318 0.356237 12.4999 0.938831C11.868 0.356292 11.0243 0 10.097 0H3.54661C1.58784 0 0 1.58785 0 3.54663C0 5.12257 1.02817 6.45762 2.45004 6.91961V20.2272C2.45004 21.0748 3.14354 21.7682 3.99099 21.7682H21.009C21.8565 21.7682 22.55 21.0747 22.55 20.2272V6.91955C23.9719 6.45762 25 5.12252 25 3.54657C25.0001 1.5879 23.4122 0 21.4534 0Z" fill="#FDBA55"/>
<path d="M6.22501 5.34589C6.67396 5.34589 7.0379 4.98194 7.0379 4.53299C7.0379 4.08404 6.67396 3.72009 6.22501 3.72009C5.77606 3.72009 5.41211 4.08404 5.41211 4.53299C5.41211 4.98194 5.77606 5.34589 6.22501 5.34589Z" fill="#AF7620"/>
<path d="M18.7738 5.34576C19.2228 5.34576 19.5867 4.98182 19.5867 4.53287C19.5867 4.08392 19.2228 3.71997 18.7738 3.71997C18.3249 3.71997 17.9609 4.08392 17.9609 4.53287C17.9609 4.98182 18.3249 5.34576 18.7738 5.34576Z" fill="#AF7620"/>
<path d="M7.09831 7.37357H5.35909C5.11106 7.37357 4.91016 7.17255 4.91016 6.92464C4.91016 6.67673 5.11112 6.47571 5.35909 6.47571H7.09831C7.34634 6.47571 7.54724 6.67673 7.54724 6.92464C7.54724 7.17255 7.34623 7.37357 7.09831 7.37357Z" fill="#FF6376"/>
<path d="M19.6432 7.37345H17.904C17.656 7.37345 17.4551 7.17243 17.4551 6.92452C17.4551 6.6766 17.656 6.47559 17.904 6.47559H19.6432C19.8913 6.47559 20.0922 6.6766 20.0922 6.92452C20.0922 7.17243 19.8911 7.37345 19.6432 7.37345Z" fill="#FF6376"/>
<path d="M11.4843 6.80953C10.6755 6.80953 10.0176 6.15158 10.0176 5.34285C10.0176 5.09494 10.2185 4.89392 10.4665 4.89392C10.7145 4.89392 10.9154 5.09494 10.9154 5.34285C10.9154 5.65652 11.1706 5.91162 11.4843 5.91162C11.7979 5.91162 12.0531 5.65641 12.0531 5.34285C12.0531 5.09494 12.2541 4.89392 12.5021 4.89392C12.7501 4.89392 12.951 5.09494 12.951 5.34285C12.9511 6.15158 12.2932 6.80953 11.4843 6.80953Z" fill="#AF7620"/>
<path d="M13.5229 6.80953C12.7141 6.80953 12.0562 6.15158 12.0562 5.34285C12.0562 5.09494 12.2571 4.89392 12.5051 4.89392C12.7531 4.89392 12.954 5.09494 12.954 5.34285C12.954 5.65652 13.2092 5.91162 13.5228 5.91162C13.8365 5.91162 14.0917 5.65641 14.0917 5.34285C14.0917 5.09494 14.2926 4.89392 14.5406 4.89392C14.7886 4.89392 14.9895 5.09494 14.9895 5.34285C14.9896 6.15158 14.3316 6.80953 13.5229 6.80953Z" fill="#AF7620"/>
<path d="M7.29023 18.3207C6.94102 18.6699 6.36967 18.6699 6.02046 18.3207L4.75068 17.0509C4.40147 16.7017 4.40147 16.1303 4.75068 15.7811L9.82584 10.706C10.175 10.3568 10.7464 10.3568 11.0956 10.706L12.3654 11.9758C12.7146 12.325 12.7146 12.8964 12.3654 13.2456L7.29023 18.3207Z" fill="#FFD553"/>
<path d="M15.1755 18.3217C14.8263 18.6709 14.2549 18.6709 13.9057 18.3217L12.6359 17.0519C12.2867 16.7027 12.2868 16.1313 12.6359 15.7821L17.7111 10.7069C18.0603 10.3578 18.6316 10.3578 18.9808 10.707L20.2506 11.9768C20.5998 12.326 20.5998 12.8974 20.2506 13.2465L15.1755 18.3217Z" fill="#FFD553"/>
</svg>
