<svg width="334" height="2464" viewBox="0 0 334 2464" fill="none" xmlns="http://www.w3.org/2000/svg">
<path fill-rule="evenodd" clip-rule="evenodd" d="M320.981 56.4961C320.981 69.145 316.371 80.8229 308.584 90.2385C315.195 99.1924 319.047 109.944 319.047 121.508C319.047 138.331 310.893 153.436 297.955 163.786C310.691 171.655 319.047 184.869 319.047 199.843C319.047 214.85 310.654 228.089 297.87 235.952C312.856 246.275 322.523 262.557 322.523 280.875C322.523 299.334 312.706 315.725 297.524 326.035V333.257C301.342 339.67 303.524 347.091 303.524 355C303.524 379.301 282.929 399 257.524 399C237.449 399 220.379 386.701 214.098 369.55C207.055 385.825 189.501 397.355 168.96 397.355C146.793 397.355 128.105 383.928 122.35 365.601C111.059 381.557 92.2808 392 71.0234 392C36.5056 392 8.52344 364.466 8.52344 330.5C8.52344 311.134 17.6205 293.858 31.8391 282.585C16.2109 274.449 5.52344 257.986 5.52344 239C5.52344 219.738 16.5238 203.073 32.5236 195.065V194.793C13.1384 185.187 0 166.6 0 145.246C0 125.251 11.5186 107.682 28.8986 97.6409C19.4205 87.7413 13.6885 74.8437 13.6885 60.7388C13.6885 29.5369 41.7384 4.24272 76.3396 4.24272C94.9804 4.24272 111.72 11.5839 123.196 23.235C134.259 14.3729 148.827 8.9903 164.788 8.9903C181.132 8.9903 196.014 14.6338 207.169 23.8777C218.517 9.4303 237.202 0 258.33 0C292.931 0 320.981 25.2942 320.981 56.4961ZM133.523 460.5C133.523 494.466 105.541 522 71.0234 522C36.5056 522 8.52344 494.466 8.52344 460.5C8.52344 426.534 36.5056 399 71.0234 399C105.541 399 133.523 426.534 133.523 460.5Z" fill="#E3F7FF"/>
<path fill-rule="evenodd" clip-rule="evenodd" d="M32.5234 1038H297.523V1106.88C310.712 1117.23 319.047 1132.49 319.047 1149.5C319.047 1160.6 315.491 1170.96 309.351 1179.7C316.673 1188.95 320.981 1200.27 320.981 1212.5C320.981 1225.15 316.371 1236.82 308.584 1246.24C315.194 1255.19 319.047 1265.94 319.047 1277.51C319.047 1294.33 310.893 1309.44 297.955 1319.79C310.691 1327.65 319.047 1340.87 319.047 1355.84C319.047 1370.63 310.9 1383.7 298.435 1391.6C316.477 1401.52 328.523 1419.43 328.523 1439.87C328.523 1460.66 316.07 1478.83 297.523 1488.64V1489.26C301.342 1495.67 303.523 1503.09 303.523 1511C303.523 1514.5 303.095 1517.91 302.285 1521.18C309.286 1528.9 313.523 1538.98 313.523 1550C313.523 1574.3 292.929 1594 267.523 1594C242.118 1594 221.523 1574.3 221.523 1550C221.523 1546.5 221.952 1543.09 222.761 1539.82C218.999 1535.67 216.035 1530.84 214.098 1525.55C207.055 1541.83 189.501 1553.36 168.96 1553.36C146.793 1553.36 128.105 1539.93 122.35 1521.6C111.059 1537.56 92.2808 1548 71.0234 1548C36.5056 1548 8.52344 1520.47 8.52344 1486.5C8.52344 1467.13 17.6205 1449.86 31.8391 1438.59C16.2109 1430.45 5.52344 1413.99 5.52344 1395C5.52344 1375.74 16.5237 1359.07 32.5234 1351.07V1350.79C13.1384 1341.19 0 1322.6 0 1301.25C0 1281.25 11.5186 1263.68 28.8986 1253.64C19.4205 1243.74 13.6885 1230.84 13.6885 1216.74C13.6885 1204.14 18.2588 1192.51 25.9854 1183.12C18.2588 1173.72 13.6885 1162.09 13.6885 1149.5C13.6885 1133.67 20.9012 1119.37 32.5234 1109.11V1038Z" fill="#E3F7FF"/>
<path fill-rule="evenodd" clip-rule="evenodd" d="M96.5909 1515H297.523V1567.88C310.712 1578.23 319.047 1593.49 319.047 1610.5C319.047 1624.92 313.054 1638.08 303.193 1648.06C314.199 1658.24 320.981 1672.15 320.981 1687.5C320.981 1700.15 316.371 1711.82 308.584 1721.24C315.194 1730.19 319.047 1740.94 319.047 1752.51C319.047 1769.33 310.893 1784.44 297.955 1794.79C310.691 1802.65 319.047 1815.87 319.047 1830.84C319.047 1845.63 310.901 1858.7 298.435 1866.6C316.477 1876.52 328.523 1894.43 328.523 1914.87C328.523 1935.66 316.07 1953.83 297.523 1963.64V1964.26C301.342 1970.67 303.524 1978.09 303.524 1986C303.524 2010.3 282.929 2030 257.524 2030C237.449 2030 220.379 2017.7 214.098 2000.55C207.055 2016.83 189.501 2028.36 168.96 2028.36C146.793 2028.36 128.105 2014.93 122.35 1996.6C111.059 2012.56 92.2808 2023 71.0234 2023C36.5056 2023 8.52344 1995.47 8.52344 1961.5C8.52344 1942.13 17.6205 1924.86 31.8391 1913.59C16.2109 1905.45 5.52344 1888.99 5.52344 1870C5.52344 1850.74 16.5237 1834.07 32.5234 1826.07V1825.79C13.1384 1816.19 0 1797.6 0 1776.25C0 1756.25 11.5186 1738.68 28.8986 1728.64C19.4205 1718.74 13.6885 1705.84 13.6885 1691.74C13.6885 1681.81 16.5298 1672.48 21.5191 1664.37C11.6961 1655.4 5.52344 1642.43 5.52344 1628C5.52344 1617.17 8.99923 1607.17 14.885 1599.06C5.60111 1589.2 0 1576.44 0 1562.5C0 1531.29 28.0498 1506 62.6511 1506C75.159 1506 86.8107 1509.31 96.5909 1515Z" fill="#E3F7FF"/>
<path fill-rule="evenodd" clip-rule="evenodd" d="M32.5234 1923H297.523V2000.27C311.161 2010.64 319.826 2026.15 319.826 2043.5C319.826 2058.8 313.074 2072.69 302.111 2082.86C312.614 2092.97 319.047 2106.55 319.047 2121.5C319.047 2127.89 317.87 2134.03 315.701 2139.76C319.096 2146.72 320.981 2154.41 320.981 2162.5C320.981 2175.15 316.371 2186.82 308.584 2196.24C315.194 2205.19 319.047 2215.94 319.047 2227.51C319.047 2244.33 310.893 2259.44 297.955 2269.79C310.691 2277.65 319.047 2290.87 319.047 2305.84C319.047 2320.29 311.268 2333.1 299.282 2341.05C312.305 2352.87 320.523 2370.19 320.523 2389.5C320.523 2425.12 292.541 2454 258.023 2454C239.633 2454 223.098 2445.8 211.661 2432.76C201.177 2450.73 180.263 2462.99 156.175 2462.99C137.472 2462.99 120.684 2455.6 109.205 2443.88C100.383 2456.08 86.1187 2464 70.0234 2464C43.2376 2464 21.5234 2442.06 21.5234 2415C21.5234 2404.81 24.6032 2395.34 29.8738 2387.5C15.3218 2379.05 5.52344 2363.18 5.52344 2345C5.52344 2325.74 16.5237 2309.07 32.5234 2301.07V2300.79C13.1384 2291.19 0 2272.6 0 2251.25C0 2231.25 11.5186 2213.68 28.8985 2203.64C19.4205 2193.74 13.6885 2180.84 13.6885 2166.74C13.6885 2153.23 18.9427 2140.84 27.7084 2131.12C18.9427 2121.4 13.6885 2109 13.6885 2095.5C13.6885 2083.4 17.9055 2072.19 25.0864 2063C17.9055 2053.8 13.6885 2042.59 13.6885 2030.5C13.6885 2014.67 20.9012 2000.37 32.5234 1990.11V1923Z" fill="#E3F7FF"/>
<path fill-rule="evenodd" clip-rule="evenodd" d="M32.5234 322H297.523V360.418C311.825 370.773 320.98 386.67 320.98 404.496C320.98 420.848 313.277 435.576 300.965 445.893C311.039 453.897 317.396 465.618 317.396 478.678C317.396 486.689 315.004 494.197 310.828 500.652C317.249 509.52 320.98 520.115 320.98 531.496C320.98 544.145 316.371 555.823 308.584 565.238C315.194 574.192 319.047 584.944 319.047 596.508C319.047 613.331 310.893 628.436 297.954 638.786C310.691 646.655 319.047 659.869 319.047 674.843C319.047 689.628 310.9 702.697 298.435 710.599C316.477 720.516 328.523 738.427 328.523 758.875C328.523 778.831 317.049 796.37 299.725 806.421C314.22 817.867 323.523 835.597 323.523 855.5C323.523 874.549 315.001 891.608 301.561 903.072C314.954 910.842 323.825 924.403 323.825 939.831C323.825 954.616 315.679 967.685 303.213 975.588C321.256 985.505 333.302 1003.42 333.302 1023.86C333.302 1040.26 325.553 1055.03 313.177 1065.35C319.839 1072.83 323.825 1082.34 323.825 1092.68C323.825 1116.8 302.14 1136.36 275.389 1136.36C248.639 1136.36 226.953 1116.8 226.953 1092.68C226.953 1084.28 229.581 1076.44 234.137 1069.78C225.937 1064.47 219.219 1057.41 214.648 1049.22C208.005 1066.19 190.057 1078.36 168.96 1078.36C146.793 1078.36 128.105 1064.93 122.35 1046.6C115.875 1055.75 106.938 1063.09 96.4833 1067.68C102.78 1077.05 106.523 1088.77 106.523 1101.5C106.523 1132.15 84.8092 1157 58.0234 1157C31.2376 1157 9.52344 1132.15 9.52344 1101.5C9.52344 1083.3 17.178 1067.15 29.0038 1057.03C16.4224 1045.78 8.52344 1029.55 8.52344 1011.5C8.52344 992.323 17.444 975.195 31.4247 963.917C18.2331 953.997 9.52344 936.913 9.52344 917.5C9.52344 897.553 18.7189 880.064 32.5234 870.281V866.04C15.0899 854.684 3.52344 834.725 3.52344 812C3.52344 789.275 15.0899 769.316 32.5234 757.96V757.934C16.5237 749.927 5.52344 733.261 5.52344 714C5.52344 694.739 16.5237 678.073 32.5234 670.066V669.793C13.1384 660.187 0 641.6 0 620.246C0 600.251 11.5186 582.682 28.8986 572.641C19.4205 562.741 13.6885 549.844 13.6885 535.739C13.6885 519.917 20.9013 505.614 32.5234 495.358V447.934C16.5237 439.927 5.52344 423.261 5.52344 404C5.52344 384.739 16.5237 368.073 32.5234 360.066V322Z" fill="#E3F7FF"/>
</svg>
